<?xml version="1.0" encoding="UTF-8"?>
<!DOCTYPE svg PUBLIC "-//W3C//DTD SVG 1.1//EN" "http://www.w3.org/Graphics/SVG/1.1/DTD/svg11.dtd">
<svg version="1.2" width="157.48mm" height="157.48mm" viewBox="0 0 15748 15748" preserveAspectRatio="xMidYMid" fill-rule="evenodd" stroke-width="28.222" stroke-linejoin="round" xmlns="http://www.w3.org/2000/svg" xmlns:ooo="http://xml.openoffice.org/svg/export" xmlns:xlink="http://www.w3.org/1999/xlink" xmlns:presentation="http://sun.com/xmlns/staroffice/presentation" xmlns:smil="http://www.w3.org/2001/SMIL20/" xmlns:anim="urn:oasis:names:tc:opendocument:xmlns:animation:1.0" xmlns:svg="urn:oasis:names:tc:opendocument:xmlns:svg-compatible:1.0" xml:space="preserve">
 <defs class="ClipPathGroup">
  <clipPath id="presentation_clip_path" clipPathUnits="userSpaceOnUse">
   <rect x="0" y="0" width="15748" height="15748"/>
  </clipPath>
  <clipPath id="presentation_clip_path_shrink" clipPathUnits="userSpaceOnUse">
   <rect x="15" y="15" width="15717" height="15717"/>
  </clipPath>
 </defs>
 <defs class="TextShapeIndex">
  <g ooo:slide="id1" ooo:id-list="id3 id4 id5 id6 id7"/>
 </defs>
 <defs class="EmbeddedBulletChars">
  <g id="bullet-char-template-57356" transform="scale(0.00048828125,-0.00048828125)">
   <path d="M 580,1141 L 1163,571 580,0 -4,571 580,1141 Z"/>
  </g>
  <g id="bullet-char-template-57354" transform="scale(0.00048828125,-0.00048828125)">
   <path d="M 8,1128 L 1137,1128 1137,0 8,0 8,1128 Z"/>
  </g>
  <g id="bullet-char-template-10146" transform="scale(0.00048828125,-0.00048828125)">
   <path d="M 174,0 L 602,739 174,1481 1456,739 174,0 Z M 1358,739 L 309,1346 659,739 1358,739 Z"/>
  </g>
  <g id="bullet-char-template-10132" transform="scale(0.00048828125,-0.00048828125)">
   <path d="M 2015,739 L 1276,0 717,0 1260,543 174,543 174,936 1260,936 717,1481 1274,1481 2015,739 Z"/>
  </g>
  <g id="bullet-char-template-10007" transform="scale(0.00048828125,-0.00048828125)">
   <path d="M 0,-2 C -7,14 -16,27 -25,37 L 356,567 C 262,823 215,952 215,954 215,979 228,992 255,992 264,992 276,990 289,987 310,991 331,999 354,1012 L 381,999 492,748 772,1049 836,1024 860,1049 C 881,1039 901,1025 922,1006 886,937 835,863 770,784 769,783 710,716 594,584 L 774,223 C 774,196 753,168 711,139 L 727,119 C 717,90 699,76 672,76 641,76 570,178 457,381 L 164,-76 C 142,-110 111,-127 72,-127 30,-127 9,-110 8,-76 1,-67 -2,-52 -2,-32 -2,-23 -1,-13 0,-2 Z"/>
  </g>
  <g id="bullet-char-template-10004" transform="scale(0.00048828125,-0.00048828125)">
   <path d="M 285,-33 C 182,-33 111,30 74,156 52,228 41,333 41,471 41,549 55,616 82,672 116,743 169,778 240,778 293,778 328,747 346,684 L 369,508 C 377,444 397,411 428,410 L 1163,1116 C 1174,1127 1196,1133 1229,1133 1271,1133 1292,1118 1292,1087 L 1292,965 C 1292,929 1282,901 1262,881 L 442,47 C 390,-6 338,-33 285,-33 Z"/>
  </g>
  <g id="bullet-char-template-9679" transform="scale(0.00048828125,-0.00048828125)">
   <path d="M 813,0 C 632,0 489,54 383,161 276,268 223,411 223,592 223,773 276,916 383,1023 489,1130 632,1184 813,1184 992,1184 1136,1130 1245,1023 1353,916 1407,772 1407,592 1407,412 1353,268 1245,161 1136,54 992,0 813,0 Z"/>
  </g>
  <g id="bullet-char-template-8226" transform="scale(0.00048828125,-0.00048828125)">
   <path d="M 346,457 C 273,457 209,483 155,535 101,586 74,649 74,723 74,796 101,859 155,911 209,963 273,989 346,989 419,989 480,963 531,910 582,859 608,796 608,723 608,648 583,586 532,535 482,483 420,457 346,457 Z"/>
  </g>
  <g id="bullet-char-template-8211" transform="scale(0.00048828125,-0.00048828125)">
   <path d="M -4,459 L 1135,459 1135,606 -4,606 -4,459 Z"/>
  </g>
  <g id="bullet-char-template-61548" transform="scale(0.00048828125,-0.00048828125)">
   <path d="M 173,740 C 173,903 231,1043 346,1159 462,1274 601,1332 765,1332 928,1332 1067,1274 1183,1159 1299,1043 1357,903 1357,740 1357,577 1299,437 1183,322 1067,206 928,148 765,148 601,148 462,206 346,322 231,437 173,577 173,740 Z"/>
  </g>
 </defs>
 <g>
  <g id="id2" class="Master_Slide">
   <g id="bg-id2" class="Background"/>
   <g id="bo-id2" class="BackgroundObjects"/>
  </g>
 </g>
 <g class="SlideGroup">
  <g>
   <g id="container-id1">
    <g id="id1" class="Slide" clip-path="url(#presentation_clip_path)">
     <g class="Page">
      <g class="com.sun.star.drawing.CustomShape">
       <g id="id3">
        <rect class="BoundingBox" stroke="none" fill="none" x="306" y="624" width="15137" height="14502"/>
        <path fill="rgb(241,241,241)" stroke="none" d="M 571,889 L 15177,889 15177,12117 C 9395,12026 9591,14323 4371,14860 2504,14536 1821,14277 571,13902 L 571,889 Z"/>
        <path fill="none" stroke="rgb(0,0,0)" stroke-width="529" stroke-linejoin="round" d="M 571,889 L 15177,889 15177,12117 C 9395,12026 9591,14323 4371,14860 2504,14536 1821,14277 571,13902 L 571,889 Z"/>
       </g>
      </g>
      <g class="Group">
       <g class="com.sun.star.drawing.OpenBezierShape">
        <g id="id4">
         <rect class="BoundingBox" stroke="none" fill="none" x="1437" y="2597" width="12875" height="2674"/>
         <path fill="none" stroke="rgb(0,0,0)" stroke-width="529" stroke-linejoin="round" d="M 1702,4856 C 1706,4673 1736,4489 1789,4316 1847,4124 1886,3928 1997,3759 2119,3574 2233,3382 2412,3237 2583,3100 2759,2965 2966,2907 3147,2856 3369,2821 3538,2958 3720,3108 3832,3314 3970,3499 4098,3670 4200,3864 4299,4055 4397,4247 4532,4419 4628,4612 4727,4814 4915,4936 5112,4977 5292,5014 5491,5029 5667,4925 5868,4806 6043,4653 6221,4508 6404,4357 6525,4139 6706,3985 6882,3835 6992,3612 7207,3516 7461,3402 7474,3751 7588,3881 7738,4053 7864,4250 8039,4404 8190,4536 8384,4590 8575,4595 8768,4600 8945,4508 9130,4474 9311,4439 9497,4364 9683,4403 9876,4444 10050,4550 10238,4613 10420,4674 10613,4718 10808,4700 10998,4682 11186,4702 11380,4647 11557,4596 11731,4540 11916,4526 12106,4510 12299,4499 12487,4473 12667,4449 12843,4370 13025,4368 13214,4366 13392,4248 13579,4351 L 13769,4404 13942,4490 14046,4561"/>
        </g>
       </g>
       <g class="com.sun.star.drawing.CustomShape">
        <g id="id5">
         <rect class="BoundingBox" stroke="none" fill="none" x="1513" y="6244" width="3526" height="3538"/>
         <path fill="none" stroke="rgb(0,0,0)" stroke-width="529" stroke-linejoin="round" d="M 3276,9516 L 1778,9516 1778,6509 4773,6509 4773,9516 3276,9516 Z"/>
        </g>
       </g>
       <g class="com.sun.star.drawing.CustomShape">
        <g id="id6">
         <rect class="BoundingBox" stroke="none" fill="none" x="6152" y="6244" width="3524" height="3539"/>
         <path fill="none" stroke="rgb(0,0,0)" stroke-width="529" stroke-linejoin="round" d="M 7913,6509 L 9410,9517 6417,9517 7913,6509 Z"/>
        </g>
       </g>
       <g class="com.sun.star.drawing.CustomShape">
        <g id="id7">
         <rect class="BoundingBox" stroke="none" fill="none" x="10787" y="6244" width="3525" height="3539"/>
         <path fill="none" stroke="rgb(0,0,0)" stroke-width="529" stroke-linejoin="round" d="M 14046,8013 C 14046,8277 13977,8536 13845,8765 13714,8994 13525,9183 13297,9316 13070,9448 12812,9517 12549,9517 12286,9517 12028,9448 11800,9316 11573,9183 11384,8994 11253,8765 11121,8536 11052,8277 11052,8013 11052,7749 11121,7490 11253,7261 11384,7032 11573,6843 11800,6710 12028,6578 12286,6509 12549,6509 12812,6509 13070,6578 13297,6710 13525,6843 13714,7032 13845,7261 13977,7490 14046,7749 14046,8013 L 14046,8013 Z"/>
        </g>
       </g>
      </g>
     </g>
    </g>
   </g>
  </g>
 </g>
</svg>