<?xml version="1.0" encoding="UTF-8"?>
<!DOCTYPE svg PUBLIC "-//W3C//DTD SVG 1.1//EN" "http://www.w3.org/Graphics/SVG/1.1/DTD/svg11.dtd">
<svg version="1.2" width="157.48mm" height="157.48mm" viewBox="0 0 15748 15748" preserveAspectRatio="xMidYMid" fill-rule="evenodd" stroke-width="28.222" stroke-linejoin="round" xmlns="http://www.w3.org/2000/svg" xmlns:ooo="http://xml.openoffice.org/svg/export" xmlns:xlink="http://www.w3.org/1999/xlink" xmlns:presentation="http://sun.com/xmlns/staroffice/presentation" xmlns:smil="http://www.w3.org/2001/SMIL20/" xmlns:anim="urn:oasis:names:tc:opendocument:xmlns:animation:1.0" xmlns:svg="urn:oasis:names:tc:opendocument:xmlns:svg-compatible:1.0" xml:space="preserve">
 <defs class="ClipPathGroup">
  <clipPath id="presentation_clip_path" clipPathUnits="userSpaceOnUse">
   <rect x="0" y="0" width="15748" height="15748"/>
  </clipPath>
  <clipPath id="presentation_clip_path_shrink" clipPathUnits="userSpaceOnUse">
   <rect x="15" y="15" width="15717" height="15717"/>
  </clipPath>
 </defs>
 <defs class="TextShapeIndex">
  <g ooo:slide="id1" ooo:id-list="id3 id4 id5 id6 id7"/>
 </defs>
 <defs class="EmbeddedBulletChars">
  <g id="bullet-char-template-57356" transform="scale(0.00048828125,-0.00048828125)">
   <path d="M 580,1141 L 1163,571 580,0 -4,571 580,1141 Z"/>
  </g>
  <g id="bullet-char-template-57354" transform="scale(0.00048828125,-0.00048828125)">
   <path d="M 8,1128 L 1137,1128 1137,0 8,0 8,1128 Z"/>
  </g>
  <g id="bullet-char-template-10146" transform="scale(0.00048828125,-0.00048828125)">
   <path d="M 174,0 L 602,739 174,1481 1456,739 174,0 Z M 1358,739 L 309,1346 659,739 1358,739 Z"/>
  </g>
  <g id="bullet-char-template-10132" transform="scale(0.00048828125,-0.00048828125)">
   <path d="M 2015,739 L 1276,0 717,0 1260,543 174,543 174,936 1260,936 717,1481 1274,1481 2015,739 Z"/>
  </g>
  <g id="bullet-char-template-10007" transform="scale(0.00048828125,-0.00048828125)">
   <path d="M 0,-2 C -7,14 -16,27 -25,37 L 356,567 C 262,823 215,952 215,954 215,979 228,992 255,992 264,992 276,990 289,987 310,991 331,999 354,1012 L 381,999 492,748 772,1049 836,1024 860,1049 C 881,1039 901,1025 922,1006 886,937 835,863 770,784 769,783 710,716 594,584 L 774,223 C 774,196 753,168 711,139 L 727,119 C 717,90 699,76 672,76 641,76 570,178 457,381 L 164,-76 C 142,-110 111,-127 72,-127 30,-127 9,-110 8,-76 1,-67 -2,-52 -2,-32 -2,-23 -1,-13 0,-2 Z"/>
  </g>
  <g id="bullet-char-template-10004" transform="scale(0.00048828125,-0.00048828125)">
   <path d="M 285,-33 C 182,-33 111,30 74,156 52,228 41,333 41,471 41,549 55,616 82,672 116,743 169,778 240,778 293,778 328,747 346,684 L 369,508 C 377,444 397,411 428,410 L 1163,1116 C 1174,1127 1196,1133 1229,1133 1271,1133 1292,1118 1292,1087 L 1292,965 C 1292,929 1282,901 1262,881 L 442,47 C 390,-6 338,-33 285,-33 Z"/>
  </g>
  <g id="bullet-char-template-9679" transform="scale(0.00048828125,-0.00048828125)">
   <path d="M 813,0 C 632,0 489,54 383,161 276,268 223,411 223,592 223,773 276,916 383,1023 489,1130 632,1184 813,1184 992,1184 1136,1130 1245,1023 1353,916 1407,772 1407,592 1407,412 1353,268 1245,161 1136,54 992,0 813,0 Z"/>
  </g>
  <g id="bullet-char-template-8226" transform="scale(0.00048828125,-0.00048828125)">
   <path d="M 346,457 C 273,457 209,483 155,535 101,586 74,649 74,723 74,796 101,859 155,911 209,963 273,989 346,989 419,989 480,963 531,910 582,859 608,796 608,723 608,648 583,586 532,535 482,483 420,457 346,457 Z"/>
  </g>
  <g id="bullet-char-template-8211" transform="scale(0.00048828125,-0.00048828125)">
   <path d="M -4,459 L 1135,459 1135,606 -4,606 -4,459 Z"/>
  </g>
  <g id="bullet-char-template-61548" transform="scale(0.00048828125,-0.00048828125)">
   <path d="M 173,740 C 173,903 231,1043 346,1159 462,1274 601,1332 765,1332 928,1332 1067,1274 1183,1159 1299,1043 1357,903 1357,740 1357,577 1299,437 1183,322 1067,206 928,148 765,148 601,148 462,206 346,322 231,437 173,577 173,740 Z"/>
  </g>
 </defs>
 <g>
  <g id="id2" class="Master_Slide">
   <g id="bg-id2" class="Background"/>
   <g id="bo-id2" class="BackgroundObjects"/>
  </g>
 </g>
 <g class="SlideGroup">
  <g>
   <g id="container-id1">
    <g id="id1" class="Slide" clip-path="url(#presentation_clip_path)">
     <g class="Page">
      <g class="com.sun.star.drawing.CustomShape">
       <g id="id3">
        <rect class="BoundingBox" stroke="none" fill="none" x="518" y="836" width="14713" height="14078"/>
        <path fill="rgb(211,211,211)" stroke="none" d="M 571,889 L 15177,889 15177,12117 C 9395,12026 9591,14323 4371,14860 2504,14536 1821,14277 571,13902 L 571,889 Z"/>
        <path fill="none" stroke="rgb(0,0,0)" stroke-width="106" stroke-linejoin="round" d="M 571,889 L 15177,889 15177,12117 C 9395,12026 9591,14323 4371,14860 2504,14536 1821,14277 571,13902 L 571,889 Z"/>
       </g>
      </g>
      <g class="Group">
       <g class="com.sun.star.drawing.OpenFreeHandShape">
        <g id="id4">
         <rect class="BoundingBox" stroke="none" fill="none" x="829" y="2420" width="13984" height="3147"/>
         <path fill="none" stroke="rgb(0,0,0)" stroke-width="882" stroke-linejoin="round" d="M 1270,4967 C 1275,4773 1306,4580 1362,4397 1424,4195 1465,3987 1583,3809 1712,3614 1833,3411 2024,3258 2205,3113 2392,2970 2612,2909 2804,2856 3039,2818 3218,2964 3412,3122 3530,3339 3677,3534 3813,3715 3921,3920 4026,4122 4130,4324 4274,4506 4375,4710 4480,4923 4680,5051 4890,5095 5080,5134 5291,5150 5478,5040 5692,4915 5877,4753 6066,4599 6261,4441 6389,4210 6580,4048 6768,3889 6885,3654 7113,3552 7382,3432 7396,3800 7517,3938 7676,4120 7809,4327 7995,4489 8155,4629 8362,4686 8565,4691 8770,4697 8957,4599 9153,4563 9346,4527 9543,4448 9741,4489 9945,4532 10130,4644 10329,4710 10522,4774 10727,4821 10935,4802 11136,4783 11335,4805 11541,4746 11730,4692 11914,4634 12111,4618 12312,4602 12516,4590 12717,4563 12907,4537 13094,4454 13287,4452 13488,4450 13677,4325 13875,4434 L 14077,4489 14261,4581 14371,4655"/>
        </g>
       </g>
       <g class="com.sun.star.drawing.CustomShape">
        <g id="id5">
         <rect class="BoundingBox" stroke="none" fill="none" x="911" y="6270" width="4058" height="4058"/>
         <path fill="none" stroke="rgb(0,0,0)" stroke-width="882" stroke-linejoin="round" d="M 2940,9886 L 1352,9886 1352,6711 4527,6711 4527,9886 2940,9886 Z"/>
        </g>
       </g>
       <g class="com.sun.star.drawing.CustomShape">
        <g id="id6">
         <rect class="BoundingBox" stroke="none" fill="none" x="5833" y="6270" width="4059" height="4059"/>
         <path fill="none" stroke="rgb(0,0,0)" stroke-width="882" stroke-linejoin="round" d="M 7862,6711 L 9450,9887 6274,9887 7862,6711 Z"/>
        </g>
       </g>
       <g class="com.sun.star.drawing.CustomShape">
        <g id="id7">
         <rect class="BoundingBox" stroke="none" fill="none" x="10754" y="6270" width="4059" height="4059"/>
         <path fill="none" stroke="rgb(0,0,0)" stroke-width="882" stroke-linejoin="round" d="M 14371,8299 C 14371,8578 14298,8852 14158,9093 14019,9334 13818,9535 13577,9674 13336,9814 13062,9887 12783,9887 12504,9887 12230,9814 11989,9674 11748,9535 11547,9334 11408,9093 11268,8852 11195,8578 11195,8299 11195,8020 11268,7746 11408,7505 11547,7264 11748,7063 11989,6924 12230,6784 12504,6711 12783,6711 13062,6711 13336,6784 13577,6924 13818,7063 14019,7264 14158,7505 14298,7746 14371,8020 14371,8299 L 14371,8299 Z"/>
        </g>
       </g>
      </g>
     </g>
    </g>
   </g>
  </g>
 </g>
</svg>